<svg width="20" height="20" viewBox="0 0 20 20" fill="none" xmlns="http://www.w3.org/2000/svg">
<path d="M9.99996 18.2054C14.5317 18.2054 18.2054 14.5317 18.2054 10C18.2054 5.46828 14.5317 1.7946 9.99996 1.7946C5.46824 1.7946 1.79456 5.46828 1.79456 10C1.79456 14.5317 5.46824 18.2054 9.99996 18.2054Z" fill="#FFBE55"/>
<path d="M10 16.0297C7.50588 16.0297 5.55058 14.6416 4.76963 12.3165C4.66878 12.0163 4.83043 11.6912 5.13063 11.5904C5.43078 11.4895 5.75598 11.6511 5.85678 11.9514C6.15283 12.8328 7.14918 14.8829 9.99998 14.8829C11.0806 14.8829 12.0048 14.5873 12.7468 14.0043C13.39 13.4991 13.8721 12.7914 14.141 11.9579C14.2383 11.6565 14.5613 11.491 14.8629 11.5882C15.1643 11.6855 15.3298 12.0086 15.2325 12.3101C14.8932 13.3616 14.2787 14.2593 13.4554 14.9062C12.5064 15.6517 11.3438 16.0297 10 16.0297Z" fill="#1E1F22"/>
<path d="M6.48789 8.7254C7.03719 8.7254 7.48249 8.2801 7.48249 7.7308C7.48249 7.1815 7.03719 6.7362 6.48789 6.7362C5.93858 6.7362 5.49329 7.1815 5.49329 7.7308C5.49329 8.2801 5.93858 8.7254 6.48789 8.7254Z" fill="#1E1F22"/>
<path d="M13.5122 8.7254C14.0615 8.7254 14.5068 8.2801 14.5068 7.7308C14.5068 7.1815 14.0615 6.7362 13.5122 6.7362C12.9629 6.7362 12.5176 7.1815 12.5176 7.7308C12.5176 8.2801 12.9629 8.7254 13.5122 8.7254Z" fill="#1E1F22"/>
</svg>
