<svg width="22" height="22" viewBox="0 0 22 22" fill="none" xmlns="http://www.w3.org/2000/svg">
<path d="M12.7675 2.2327L14.568 5.83368C14.8136 6.33495 15.4683 6.81576 16.0207 6.90783L19.2841 7.45002C21.371 7.79784 21.862 9.31189 20.3582 10.8055L17.8212 13.3425C17.3915 13.7722 17.1562 14.6008 17.2892 15.1942L18.0156 18.3348C18.5884 20.8207 17.2688 21.7823 15.0693 20.4831L12.0105 18.6724C11.4581 18.345 10.5476 18.345 9.98498 18.6724L6.9262 20.4831C4.73697 21.7823 3.40707 20.8104 3.97995 18.3348L4.70628 15.1942C4.83927 14.6008 4.60398 13.7722 4.17432 13.3425L1.63727 10.8055C0.143689 9.31189 0.624501 7.79784 2.71143 7.45002L5.97481 6.90783C6.517 6.81576 7.17172 6.33495 7.41724 5.83368L9.21773 2.2327C10.1998 0.278768 11.7957 0.278768 12.7675 2.2327Z" stroke="white" stroke-width="1.5" stroke-linecap="round" stroke-linejoin="round"/>
</svg>
