<svg width="9" height="12" viewBox="0 0 9 12" fill="none" xmlns="http://www.w3.org/2000/svg">
<path d="M7.30952 11.5C7.21757 11.5 7.12725 11.4746 7.04762 11.4263L4.16667 9.6817L1.28571 11.4263C1.20609 11.4746 1.11576 11.5 1.02381 11.5C0.931866 11.5 0.841539 11.4746 0.76191 11.4263C0.682282 11.378 0.616157 11.3086 0.570182 11.225C0.524207 11.1414 0.500002 11.0465 0.5 10.95V2.15C0.500416 1.71253 0.66611 1.2931 0.96072 0.983756C1.25533 0.674416 1.65479 0.500437 2.07143 0.5H6.2619C6.67855 0.500437 7.078 0.674416 7.37261 0.983756C7.66722 1.2931 7.83292 1.71253 7.83333 2.15V10.95C7.83333 11.0959 7.77815 11.2358 7.67991 11.3389C7.58168 11.4421 7.44845 11.5 7.30952 11.5Z" stroke="#1E1F22"/>
</svg>
